<?xml version="1.0" encoding="utf-8"?>
<!-- Generator: Adobe Illustrator 23.0.4, SVG Export Plug-In . SVG Version: 6.00 Build 0)  -->
<svg version="1.1" id="BeaconCover" xmlns="http://www.w3.org/2000/svg" xmlns:xlink="http://www.w3.org/1999/xlink" x="0px"
	 y="0px" width="612px" height="792px" viewBox="0 0 612 792" style="enable-background:new 0 0 612 792;" xml:space="preserve">
<style type="text/css">
	.st0{fill:none;stroke:#000000;stroke-linecap:round;stroke-linejoin:round;}
</style>
<path class="st0" d="M39.007,738.042c0,0.512,0.212,0.723,0.723,0.723c1.953,0,3.907,0,5.86,0c0.511,0,0.723-0.212,0.723-0.723
	c0-5.117,0-10.235,0-15.353c0-0.511-0.212-0.723-0.723-0.723c-1.953,0-3.907,0-5.86,0c-0.511,0-0.723,0.212-0.723,0.723
	C39.007,727.807,39.007,732.924,39.007,738.042z"/>
<circle class="st0" cx="81.702" cy="730.366" r="46.161"/>
<path class="st0" d="M103.91,742.767c0,0.799,0.648,1.447,1.447,1.447c1.378,0,2.756,0,4.134,0c0.799,0,1.447-0.648,1.447-1.447
	c0-3.062,0-6.124,0-9.186c0-0.799-0.648-1.447-1.447-1.447c-1.378,0-2.756,0-4.134,0c-0.799,0-1.447,0.648-1.447,1.447
	C103.91,736.643,103.91,739.705,103.91,742.767z"/>
<path class="st0" d="M73.136,761.139c0,0.799,0.648,1.447,1.447,1.447c1.378,0,2.756,0,4.134,0c0.799,0,1.447-0.648,1.447-1.447
	c0-3.062,0-6.124,0-9.186c0-0.799-0.648-1.447-1.447-1.447c-1.378,0-2.756,0-4.134,0c-0.799,0-1.447,0.648-1.447,1.447
	C73.136,755.015,73.136,758.077,73.136,761.139z"/>
<path class="st0" d="M52.467,743.15c0,0.799,0.648,1.447,1.447,1.447c1.378,0,2.756,0,4.134,0c0.799,0,1.447-0.648,1.447-1.447
	c0-3.062,0-6.124,0-9.186c0-0.799-0.648-1.447-1.447-1.447c-1.378,0-2.756,0-4.134,0c-0.799,0-1.447,0.648-1.447,1.447
	C52.467,737.026,52.467,740.088,52.467,743.15z"/>
<path class="st0" d="M69.002,716.586c0,0.799,0.648,1.447,1.447,1.447c1.378,0,2.756,0,4.134,0c0.799,0,1.447-0.648,1.447-1.447
	c0-3.062,0-6.124,0-9.186c0-0.799-0.648-1.447-1.447-1.447c-1.378,0-2.756,0-4.134,0c-0.799,0-1.447,0.648-1.447,1.447
	C69.002,710.462,69.002,713.524,69.002,716.586z"/>
<path class="st0" d="M73.302,772.261c0,0.511,0.212,0.723,0.723,0.723c5.118,0,10.235,0,15.353,0c0.511,0,0.723-0.212,0.723-0.723
	c0-1.953,0-3.907,0-5.86c0-0.511-0.212-0.723-0.723-0.723c-5.118,0-10.235,0-15.353,0c-0.511,0-0.723,0.212-0.723,0.723
	C73.302,768.354,73.302,770.307,73.302,772.261z"/>
<path class="st0" d="M117.09,738.042c0,0.512,0.212,0.723,0.723,0.723c1.953,0,3.907,0,5.86,0c0.511,0,0.723-0.212,0.723-0.723
	c0-5.117,0-10.235,0-15.353c0-0.511-0.212-0.723-0.723-0.723c-1.953,0-3.907,0-5.86,0c-0.511,0-0.723,0.212-0.723,0.723
	C117.09,727.807,117.09,732.924,117.09,738.042z"/>
<path class="st0" d="M73.302,694.254c0,0.511,0.212,0.723,0.723,0.723c5.118,0,10.235,0,15.353,0c0.511,0,0.723-0.212,0.723-0.723
	c0-1.953,0-3.907,0-5.86c0-0.511-0.212-0.723-0.723-0.723c-5.118,0-10.235,0-15.353,0c-0.511,0-0.723,0.212-0.723,0.723
	C73.302,690.347,73.302,692.301,73.302,694.254z"/>
<path class="st0" d="M131.479,730.366c0-1.698-0.086-3.396-0.257-5.085c-0.169-1.659-0.42-3.309-0.754-4.943
	c-0.655-3.202-1.629-6.339-2.902-9.349c-1.251-2.959-2.792-5.795-4.59-8.457c-1.784-2.641-3.822-5.111-6.076-7.365
	c-2.254-2.254-4.723-4.292-7.365-6.076c-2.662-1.798-5.498-3.339-8.457-4.59c-3.01-1.273-6.147-2.247-9.349-2.902
	c-1.633-0.334-3.284-0.586-4.943-0.754c-1.689-0.172-3.387-0.257-5.085-0.257s-3.396,0.086-5.085,0.257
	c-1.659,0.169-3.309,0.42-4.943,0.754c-3.202,0.655-6.339,1.629-9.349,2.902c-2.959,1.251-5.795,2.792-8.457,4.59
	c-2.641,1.784-5.111,3.823-7.365,6.076c-2.254,2.254-4.292,4.723-6.076,7.365c-1.798,2.662-3.339,5.498-4.59,8.457
	c-1.273,3.01-2.246,6.147-2.902,9.349c-0.334,1.633-0.586,3.284-0.754,4.943c-0.172,1.689-0.257,3.387-0.257,5.085
	c0,1.698,0.086,3.396,0.257,5.085c0.168,1.659,0.42,3.309,0.754,4.943c0.655,3.202,1.629,6.339,2.902,9.349
	c1.251,2.959,2.792,5.795,4.59,8.457c1.784,2.641,3.822,5.111,6.076,7.365c2.254,2.254,4.723,4.292,7.365,6.076
	c2.662,1.798,5.498,3.339,8.457,4.59c3.01,1.273,6.147,2.247,9.349,2.902c1.633,0.334,3.284,0.586,4.943,0.754
	c1.689,0.172,3.387,0.257,5.085,0.257c1.698,0,3.396-0.086,5.085-0.257c1.659-0.169,3.309-0.42,4.943-0.754
	c3.202-0.655,6.339-1.629,9.349-2.902c2.959-1.251,5.795-2.792,8.457-4.59c2.641-1.784,5.111-3.822,7.365-6.076
	c2.254-2.254,4.292-4.723,6.076-7.365c1.798-2.662,3.339-5.498,4.59-8.457c1.273-3.01,2.246-6.147,2.902-9.349
	c0.334-1.633,0.586-3.284,0.754-4.943C131.394,733.761,131.479,732.063,131.479,730.366z"/>
</svg>
