<svg id="BeaconCover" xmlns="http://www.w3.org/2000/svg" width="28.35278mm" height="28.35279mm" viewBox="0 0 80.3701 80.3701"><defs><style>.cls-1{fill:none;stroke:#ed1c24;stroke-linecap:round;stroke-linejoin:round;}</style></defs><title>Beacon_housing</title><circle class="cls-1" cx="40.1851" cy="40.185" r="7.2"/><path class="cls-1" d="M62.2651,25.7912h3.24a1.1338,1.1338,0,0,1,1.1338,1.1338v7.2001a1.1338,1.1338,0,0,1-1.1338,1.1338h-3.24a1.1339,1.1339,0,0,1-1.1339-1.1339V26.9251A1.1339,1.1339,0,0,1,62.2651,25.7912Z"/><path class="cls-1" d="M52.1851,45.8912h3.24a1.1338,1.1338,0,0,1,1.1338,1.1338v7.2001a1.1338,1.1338,0,0,1-1.1338,1.1338h-3.24a1.1339,1.1339,0,0,1-1.1339-1.1339V47.0251A1.1339,1.1339,0,0,1,52.1851,45.8912Z"/><path class="cls-1" d="M23.02235,45.19727h3.2399c.8017,0,1.1338-.3321,1.1338-1.1339v-7.2c0-.8017-.3321-1.1338-1.1338-1.1338h-3.24c-.8018,0-1.1339.3321-1.1339,1.1338v7.1744l.0001.0306C21.892,44.86717,22.22355,45.19727,23.02235,45.19727Z" transform="translate(-10.07715 -10.71837)"/><path class="cls-1" d="M25.5451,14.2112h3.24a1.1338,1.1338,0,0,1,1.1338,1.1338v7.2001a1.1338,1.1338,0,0,1-1.1338,1.1338h-3.24a1.1339,1.1339,0,0,1-1.1339-1.1339V15.3451A1.1339,1.1339,0,0,1,25.5451,14.2112Z"/><circle class="cls-1" cx="40.1851" cy="40.185" r="36.18"/><circle class="cls-1" cx="40.1851" cy="40.185" r="36.18"/><circle class="cls-1" cx="50.26222" cy="50.9034" r="39.68509" transform="translate(-31.34982 39.73165) rotate(-45)"/><path class="cls-1" d="M33.8251,67.5781h12.6a.5669.5669,0,0,1,.5669.5669v5.1601a.5669.5669,0,0,1-.5669.5669h-12.6a.567.567,0,0,1-.567-.567V68.1451A.567.567,0,0,1,33.8251,67.5781Z"/><path class="cls-1" d="M30.56205,71.97647q-2.24385,1.2735-4.4876,2.547a.48427.48427,0,0,1-.7729-.2132q-3.10965-5.47905-6.2194-10.9581a.48417.48417,0,0,1,.2132-.7728q2.24385-1.2735,4.4876-2.547a.48423.48423,0,0,1,.7729.2132q3.10965,5.4789,6.2194,10.958A.48427.48427,0,0,1,30.56205,71.97647Z" transform="translate(-10.07715 -10.71837)"/><path class="cls-1" d="M34.4251,48.2581h12.66a.5669.5669,0,0,1,.5669.5669v5.1601a.5669.5669,0,0,1-.5669.5669H34.425a.5669.5669,0,0,1-.5669-.5669v-5.16A.567.567,0,0,1,34.4251,48.2581Z"/><path class="cls-1" d="M68.1451,33.3181h5.16a.5669.5669,0,0,1,.5669.5669V46.4851a.5669.5669,0,0,1-.5669.5669h-5.16a.567.567,0,0,1-.567-.567V33.8851A.567.567,0,0,1,68.1451,33.3181Z"/><path class="cls-1" d="M23.2051,32.8381h5.16a.5669.5669,0,0,1,.5669.5669V46.0051a.5669.5669,0,0,1-.5669.5669h-5.16a.567.567,0,0,1-.567-.567V33.4051A.567.567,0,0,1,23.2051,32.8381Z"/><path class="cls-1" d="M33.8251,6.4381H46.425a.567.567,0,0,1,.567.567v5.16a.5669.5669,0,0,1-.5669.5669h-12.6a.567.567,0,0,1-.567-.567V7.0051A.567.567,0,0,1,33.8251,6.4381Z"/><path class="cls-1" d="M76.70565,60.20047q2.2344,1.29,4.4687,2.58a.48427.48427,0,0,1,.2075.7745l-6.3,10.9119a.48416.48416,0,0,1-.7744.2075q-2.2344-1.29-4.4687-2.58a.48416.48416,0,0,1-.2075-.7744l6.3-10.9119A.48423.48423,0,0,1,76.70565,60.20047Z" transform="translate(-10.07715 -10.71837)"/><path class="cls-1" d="M17.02225,44.03647h5.4436c.2004,0,.2834.083.2834.2835v.3129l.0001.046q-.00015,6.2622-.0002,12.5245c0,.4009-.1661.567-.5669.567h-5.16c-.4009,0-.567-.1661-.567-.567v-12.6C16.45525,44.20257,16.62135,44.03647,17.02225,44.03647Z" transform="translate(-10.07715 -10.71837)"/></svg>